<svg xmlns="http://www.w3.org/2000/svg" viewBox="0 0 287.58 58.87"><defs><style>.cls-1{fill:#fff;}</style></defs><title>logo-white</title><g id="Layer_2" data-name="Layer 2"><g id="Layer_1-2" data-name="Layer 1"><g id="Layer_1-2-2" data-name="Layer 1-2"><g id="creedo_black" data-name="creedo black"><path class="cls-1" d="M96.35,49.09a4.59,4.59,0,0,1-1.53,3.45,23.6,23.6,0,0,1-15.89,5.94c-14,0-24.1-10.46-24.1-24.09A24.12,24.12,0,0,1,61.4,17.48a5.72,5.72,0,1,1,9.47-5.93,25.62,25.62,0,0,1,8.06-1.26A23.61,23.61,0,0,1,94.57,16,4.85,4.85,0,0,1,95,22.84a4.94,4.94,0,0,1-1.22,1,6,6,0,0,1-3,.81,5.78,5.78,0,0,1-3.65-1.3,12.89,12.89,0,0,0-8.26-2.78c-8.21,0-13.51,5.49-13.51,13.77s5.3,13.76,13.51,13.76a13,13,0,0,0,8.14-2.66A6.13,6.13,0,0,1,94,45,4.75,4.75,0,0,1,96.35,49.09Z"/><path class="cls-1" d="M217.53,58.31A21.41,21.41,0,0,1,196,37V36.6a21.4,21.4,0,0,1,21.1-21.7h.45a19.76,19.76,0,0,1,15.82,7.37V1.34A1.34,1.34,0,0,1,234.69,0h3.58a1.28,1.28,0,0,1,1.28,1.28V56.17a1.27,1.27,0,0,1-1.27,1.27h-3.75a1.18,1.18,0,0,1-1.18-1.18V50.94A19.76,19.76,0,0,1,217.53,58.31Zm.24-37.37a15.46,15.46,0,0,0-15.59,15.33v.33a15.59,15.59,0,1,0,31.17.79c0-.26,0-.53,0-.79a15.45,15.45,0,0,0-15.24-15.66Z"/><path class="cls-1" d="M238.42,1.13V56.31h-3.94V47.17a18.67,18.67,0,0,1-16.95,10A20.31,20.31,0,0,1,197.11,37V36.6a20.31,20.31,0,0,1,20-20.6h.4a18.67,18.67,0,0,1,16.95,10V1.13ZM234.48,36.6a16.72,16.72,0,0,0-33.43-.82c0,.28,0,.55,0,.82a16.72,16.72,0,0,0,33.43.82c0-.27,0-.55,0-.82Z"/><path class="cls-1" d="M265.24,58.87a22.15,22.15,0,1,1,.39,0Zm0-37.37a14.91,14.91,0,0,0-15,14.82v.28a15,15,0,1,0,15.38-15.1Z"/><path class="cls-1" d="M244.5,36.6a20.7,20.7,0,1,1,20.82,20.58h-.08A20.44,20.44,0,0,1,244.5,37.06Zm37.37,0a16.67,16.67,0,0,0-33.34,0v0a16.67,16.67,0,1,0,33.34,0Z"/><path class="cls-1" d="M122.84,57.06c-13,0-22.42-9.37-22.42-22.27s9.29-22.26,22.1-22.26c13.75,0,21.17,11.55,21.17,22.42a6.37,6.37,0,0,1-.05,1,4.71,4.71,0,0,0,0,.84h0A1.69,1.69,0,0,1,142,38.48H108.19c1.53,6.87,7.24,11.37,14.73,11.37,5.45,0,10-2.36,12.16-6.3h0a1.66,1.66,0,0,1,2.25-.66l0,0L141,45.07a1.56,1.56,0,0,1,.55,2.14h0l-.07.11C137.75,53.51,131,57.06,122.84,57.06ZM136,31.29c-1.49-8-7.65-11.6-13.44-11.6-7.4,0-13,4.59-14.37,11.6Z"/><path class="cls-1" d="M142,35h0a1.9,1.9,0,0,1-1.92,1.87H106.2c1,8.91,7.73,14.74,16.72,14.74,6,0,10.64-2.57,13.1-6.28a1.09,1.09,0,0,1,1.46-.35L140,46.46c-3.24,5.36-9.39,8.91-17.19,8.91-12.14,0-20.73-8.67-20.73-20.58,0-11.59,8.35-20.58,20.41-20.58S142,24.15,142,35Zm-35.8-2h31.7c-.87-9.62-7.65-15-15.38-15C113.54,18,107,24.23,106.2,33Z"/><path class="cls-1" d="M171.2,57.06c-13,0-22.42-9.37-22.42-22.27s9.29-22.26,22.1-22.26c13.75,0,21.17,11.55,21.17,22.42a6.37,6.37,0,0,1-.05,1,4.71,4.71,0,0,0,0,.84h0a1.69,1.69,0,0,1-1.69,1.69H156.55c1.53,6.87,7.24,11.37,14.73,11.37,5.45,0,10-2.36,12.16-6.3h0a1.68,1.68,0,0,1,2.28-.68l.06,0,3.47,2a1.68,1.68,0,0,1,.59,2.3v0h0C186.11,53.51,179.31,57.06,171.2,57.06Zm13.12-25.77c-1.49-8-7.65-11.6-13.44-11.6-7.4,0-13,4.59-14.37,11.6Z"/><path class="cls-1" d="M190.36,35c0,.63-.08,1.26-.08,1.89H154.56c.95,8.91,7.73,14.74,16.72,14.74,6.46,0,11.35-3,13.64-7.17l3.47,2c-3.24,5.36-9.39,8.91-17.19,8.91-12.14,0-20.74-8.67-20.74-20.58,0-11.59,8.36-20.58,20.42-20.58S190.36,24.15,190.36,35Zm-35.8-2h31.7c-.87-9.62-7.65-15-15.38-15C161.9,18,155.35,24.23,154.56,33Z"/></g><rect class="cls-1" y="8.66" width="12.53" height="12.53" rx="2.11"/><rect class="cls-1" x="23.7" y="8.66" width="12.53" height="12.53" rx="2.11"/><rect class="cls-1" y="44.79" width="12.53" height="12.53" rx="2.11"/><rect class="cls-1" x="23.7" y="44.79" width="12.53" height="12.53" rx="2.11"/></g></g></g></svg>